<svg xmlns="http://www.w3.org/2000/svg" viewBox="0 0 80 80"><defs><style>.cls-1{opacity:0;}.cls-2{opacity:0.1;}.cls-3{fill:#956f5c;}.cls-3,.cls-5,.cls-6{fill-rule:evenodd;}.cls-4{opacity:0.6;}.cls-5,.cls-6{fill:none;stroke:#956f5c;stroke-miterlimit:10;}.cls-5{stroke-width:0.97px;}.cls-6{stroke-width:2px;}.cls-7{opacity:0.3;}</style></defs><title>metal</title><g id="Layer_2" data-name="Layer 2"><g id="Layer_2-2" data-name="Layer 2"><rect class="cls-1" width="80" height="80"/><g id="Settings" class="cls-2"><path class="cls-3" d="M58.81,38.87a1.31,1.31,0,0,0-1.28-1,4.4,4.4,0,0,1-3-7.66,1.11,1.11,0,0,0,.12-1.51,19.47,19.47,0,0,0-3.16-3.19,1.11,1.11,0,0,0-1.51.12,4.6,4.6,0,0,1-5,1.12,4.44,4.44,0,0,1-2.7-4.33,1.1,1.1,0,0,0-1-1.17,20.43,20.43,0,0,0-4.49,0,1.11,1.11,0,0,0-1,1.14,4.45,4.45,0,0,1-2.73,4.26,4.62,4.62,0,0,1-4.94-1.12,1.11,1.11,0,0,0-1.51-.13,20.3,20.3,0,0,0-3.23,3.19,1.13,1.13,0,0,0,.12,1.52,4.41,4.41,0,0,1,1.12,5,4.61,4.61,0,0,1-4.34,2.7,1.08,1.08,0,0,0-1.15,1,19.69,19.69,0,0,0,0,4.54,1.32,1.32,0,0,0,1.31,1A4.38,4.38,0,0,1,24.57,47,4.45,4.45,0,0,1,23.46,52a1.1,1.1,0,0,0-.13,1.5,19.46,19.46,0,0,0,3.16,3.19A1.11,1.11,0,0,0,28,56.52a4.58,4.58,0,0,1,5-1.11,4.42,4.42,0,0,1,2.7,4.33,1.12,1.12,0,0,0,1,1.16A19.58,19.58,0,0,0,39,61a20.09,20.09,0,0,0,2.19-.12,1.11,1.11,0,0,0,1-1.14,4.42,4.42,0,0,1,2.73-4.25,4.61,4.61,0,0,1,4.94,1.12,1.11,1.11,0,0,0,1.5.13,19.56,19.56,0,0,0,3.23-3.2,1.09,1.09,0,0,0-.12-1.51,4.41,4.41,0,0,1,3-7.68h.24a1.1,1.1,0,0,0,1.17-1A19.61,19.61,0,0,0,58.81,38.87Z"/></g><g id="Settings-2" data-name="Settings" class="cls-4"><path class="cls-5" d="M33.1,26.63a2,2,0,0,1-.88-3.47.52.52,0,0,0,.06-.7A8.83,8.83,0,0,0,30.82,21a.5.5,0,0,0-.7.06,2.12,2.12,0,0,1-2.29.51,2,2,0,0,1-1.25-2,.5.5,0,0,0-.45-.53,9,9,0,0,0-2.07,0,.51.51,0,0,0-.45.53,2.05,2.05,0,0,1-1.26,2A2.13,2.13,0,0,1,20.07,21a.51.51,0,0,0-.69-.06,9,9,0,0,0-1.49,1.47.51.51,0,0,0,.05.7,2.05,2.05,0,0,1,.52,2.3,2.13,2.13,0,0,1-2,1.24.51.51,0,0,0-.53.45,9.22,9.22,0,0,0,0,2.1.61.61,0,0,0,.6.45,2,2,0,0,1,1.38,3.54.5.5,0,0,0,0,.69,8.77,8.77,0,0,0,1.45,1.47.51.51,0,0,0,.7-.05,2.11,2.11,0,0,1,2.29-.52,2,2,0,0,1,1.25,1.84"/></g><g id="Settings-3" data-name="Settings" class="cls-4"><path class="cls-5" d="M64.12,50a.2.2,0,0,0-.2-.16.69.69,0,0,1-.64-.42.68.68,0,0,1,.17-.76.16.16,0,0,0,0-.23A2.9,2.9,0,0,0,63,48a.17.17,0,0,0-.23,0,.72.72,0,0,1-.77.17.69.69,0,0,1-.42-.67.17.17,0,0,0-.15-.18,4,4,0,0,0-.69,0,.18.18,0,0,0-.16.18.7.7,0,0,1-.42.66.72.72,0,0,1-.76-.18.2.2,0,0,0-.24,0,3.38,3.38,0,0,0-.5.5.18.18,0,0,0,0,.23.68.68,0,0,1,.18.77.73.73,0,0,1-.68.42A.16.16,0,0,0,58,50a3.28,3.28,0,0,0,0,.7c0,.09.12.15.21.15a.69.69,0,0,1,.46,1.19.16.16,0,0,0,0,.23,2.9,2.9,0,0,0,.49.5.17.17,0,0,0,.23,0,.7.7,0,0,1,.77-.17.67.67,0,0,1,.42.66.18.18,0,0,0,.15.19l.36,0,.34,0a.17.17,0,0,0,.15-.18.69.69,0,0,1,.42-.66.72.72,0,0,1,.77.18.18.18,0,0,0,.23,0,3.94,3.94,0,0,0,.5-.5.16.16,0,0,0,0-.23.7.7,0,0,1-.17-.77.69.69,0,0,1,.63-.42h0a.17.17,0,0,0,.18-.15A4.09,4.09,0,0,0,64.12,50Z"/></g><g id="Settings-4" data-name="Settings"><path class="cls-6" d="M58.81,38.87a1.31,1.31,0,0,0-1.28-1,4.4,4.4,0,0,1-3-7.66,1.11,1.11,0,0,0,.12-1.51,19.47,19.47,0,0,0-3.16-3.19,1.11,1.11,0,0,0-1.51.12,4.6,4.6,0,0,1-5,1.12,4.44,4.44,0,0,1-2.7-4.33,1.1,1.1,0,0,0-1-1.17,20.43,20.43,0,0,0-4.49,0,1.11,1.11,0,0,0-1,1.14,4.45,4.45,0,0,1-2.73,4.26,4.62,4.62,0,0,1-4.94-1.12,1.11,1.11,0,0,0-1.51-.13,20.3,20.3,0,0,0-3.23,3.19,1.13,1.13,0,0,0,.12,1.52,4.41,4.41,0,0,1,1.12,5,4.61,4.61,0,0,1-4.34,2.7,1.08,1.08,0,0,0-1.15,1,19.69,19.69,0,0,0,0,4.54,1.32,1.32,0,0,0,1.31,1A4.38,4.38,0,0,1,24.57,47,4.45,4.45,0,0,1,23.46,52a1.1,1.1,0,0,0-.13,1.5,19.46,19.46,0,0,0,3.16,3.19A1.11,1.11,0,0,0,28,56.52a4.58,4.58,0,0,1,5-1.11,4.42,4.42,0,0,1,2.7,4.33,1.12,1.12,0,0,0,1,1.16A19.58,19.58,0,0,0,39,61a20.09,20.09,0,0,0,2.19-.12,1.11,1.11,0,0,0,1-1.14,4.42,4.42,0,0,1,2.73-4.25,4.61,4.61,0,0,1,4.94,1.12,1.11,1.11,0,0,0,1.5.13,19.56,19.56,0,0,0,3.23-3.2,1.09,1.09,0,0,0-.12-1.51,4.41,4.41,0,0,1,3-7.68h.24a1.1,1.1,0,0,0,1.17-1A19.61,19.61,0,0,0,58.81,38.87Z"/></g><g class="cls-7"><g id="Settings-5" data-name="Settings"><path class="cls-3" d="M45.76,66.15a.06.06,0,0,0-.06-.05.23.23,0,0,1-.22-.14.23.23,0,0,1,.06-.26.08.08,0,0,0,0-.08,1.37,1.37,0,0,0-.17-.17.08.08,0,0,0-.08,0,.23.23,0,0,1-.4-.17.06.06,0,0,0,0-.06,1,1,0,0,0-.24,0,.06.06,0,0,0,0,.06.22.22,0,0,1-.14.22.23.23,0,0,1-.26-.06.06.06,0,0,0-.08,0,.91.91,0,0,0-.17.17,0,0,0,0,0,0,.07A.27.27,0,0,1,44,66a.26.26,0,0,1-.23.14.06.06,0,0,0-.06.05,1,1,0,0,0,0,.24s0,0,.07,0a.2.2,0,0,1,.21.14.23.23,0,0,1-.06.26.06.06,0,0,0,0,.08.81.81,0,0,0,.16.16.06.06,0,0,0,.08,0,.23.23,0,0,1,.26-.06.23.23,0,0,1,.14.23.06.06,0,0,0,.05.06h.24a.06.06,0,0,0,0-.06A.24.24,0,0,1,45,67a.24.24,0,0,1,.26,0,.05.05,0,0,0,.08,0,.91.91,0,0,0,.17-.17.06.06,0,0,0,0-.08.22.22,0,0,1-.06-.26.23.23,0,0,1,.21-.14h0a.06.06,0,0,0,.06,0A1,1,0,0,0,45.76,66.15Z"/></g><g id="Settings-6" data-name="Settings"><path class="cls-3" d="M59.53,59.42a.07.07,0,0,0-.06-.05.21.21,0,0,1-.2-.13.22.22,0,0,1,0-.23,0,0,0,0,0,0-.07l-.15-.15a0,0,0,0,0-.07,0,.22.22,0,0,1-.24.06.23.23,0,0,1-.13-.21,0,0,0,0,0,0,0,.81.81,0,0,0-.22,0,0,0,0,0,0,0,0,.21.21,0,0,1-.13.2.23.23,0,0,1-.24-.05.06.06,0,0,0-.07,0,1.06,1.06,0,0,0-.15.15.06.06,0,0,0,0,.08.2.2,0,0,1,.06.23.23.23,0,0,1-.21.13,0,0,0,0,0-.05.05.74.74,0,0,0,0,.21.06.06,0,0,0,.06,0,.21.21,0,0,1,.19.13.2.2,0,0,1,0,.23.06.06,0,0,0,0,.07,1.06,1.06,0,0,0,.15.15.06.06,0,0,0,.08,0,.2.2,0,0,1,.23,0,.21.21,0,0,1,.13.2.06.06,0,0,0,0,.06h.21a.06.06,0,0,0,.05-.06.18.18,0,0,1,.13-.2.22.22,0,0,1,.23,0,0,0,0,0,0,.07,0,.71.71,0,0,0,.15-.15,0,0,0,0,0,0-.07.2.2,0,0,1,0-.24.21.21,0,0,1,.19-.13h0a.07.07,0,0,0,.06,0Z"/></g><g id="Settings-7" data-name="Settings"><path class="cls-3" d="M19.14,54.57s0-.06-.08-.06a.28.28,0,0,1-.19-.48.08.08,0,0,0,0-.1,1.26,1.26,0,0,0-.2-.2.06.06,0,0,0-.09,0,.3.3,0,0,1-.31.07.26.26,0,0,1-.17-.27.07.07,0,0,0-.06-.07.94.94,0,0,0-.29,0,.07.07,0,0,0-.06.07.26.26,0,0,1-.17.26.28.28,0,0,1-.31-.07.06.06,0,0,0-.09,0,.64.64,0,0,0-.2.2s0,.07,0,.09a.26.26,0,0,1,.07.31.28.28,0,0,1-.27.17.07.07,0,0,0-.07.06,1.41,1.41,0,0,0,0,.29s0,.06.08.06a.28.28,0,0,1,.26.17.3.3,0,0,1-.07.31.06.06,0,0,0,0,.09,1,1,0,0,0,.2.2.06.06,0,0,0,.09,0,.27.27,0,0,1,.31-.07.26.26,0,0,1,.17.27.08.08,0,0,0,.07.07H18a.07.07,0,0,0,.06-.07.27.27,0,0,1,.17-.27.3.3,0,0,1,.31.07.06.06,0,0,0,.09,0,1,1,0,0,0,.21-.2.06.06,0,0,0,0-.09.28.28,0,0,1-.07-.32.27.27,0,0,1,.25-.17h0a.06.06,0,0,0,.07-.06A1.31,1.31,0,0,0,19.14,54.57Z"/></g><g id="Settings-8" data-name="Settings"><path class="cls-3" d="M53.87,16.72a.08.08,0,0,0-.08-.07.26.26,0,0,1-.26-.17.28.28,0,0,1,.07-.31.08.08,0,0,0,0-.1l-.2-.2a.08.08,0,0,0-.1,0A.3.3,0,0,1,53,16a.26.26,0,0,1-.17-.27.09.09,0,0,0-.06-.08h-.29a.07.07,0,0,0-.06.07.29.29,0,0,1-.17.27.28.28,0,0,1-.32-.07.07.07,0,0,0-.09,0,.8.8,0,0,0-.2.21.06.06,0,0,0,0,.09.28.28,0,0,1,.07.32.29.29,0,0,1-.27.17s-.07,0-.07.06a.71.71,0,0,0,0,.29s0,.06.08.06a.28.28,0,0,1,.26.17.3.3,0,0,1-.07.31.08.08,0,0,0,0,.1,1.89,1.89,0,0,0,.2.2.06.06,0,0,0,.09,0,.32.32,0,0,1,.32-.07.28.28,0,0,1,.17.27.08.08,0,0,0,.06.08h.29s.06,0,.06-.07a.26.26,0,0,1,.17-.27.3.3,0,0,1,.31.07.08.08,0,0,0,.1,0l.2-.2a.08.08,0,0,0,0-.1.31.31,0,0,1-.07-.32.3.3,0,0,1,.26-.17h0a.06.06,0,0,0,.07-.06A1.31,1.31,0,0,0,53.87,16.72Z"/></g><g id="Settings-9" data-name="Settings"><path class="cls-3" d="M66,31.35s0,0-.05,0a.18.18,0,0,1-.16-.1.17.17,0,0,1,0-.19.06.06,0,0,0,0-.06l-.12-.12a.06.06,0,0,0-.06,0,.19.19,0,0,1-.19.05.16.16,0,0,1-.1-.17,0,0,0,0,0,0,0h-.17a0,0,0,0,0,0,0,.16.16,0,0,1-.11.16.17.17,0,0,1-.19,0,0,0,0,0,0,0,0,.8.8,0,0,0-.13.13,0,0,0,0,0,0,.06.16.16,0,0,1,0,.19.18.18,0,0,1-.17.1,0,0,0,0,0,0,0,.48.48,0,0,0,0,.17s0,0,.05,0a.18.18,0,0,1,.16.1.17.17,0,0,1,0,.19.06.06,0,0,0,0,.06.68.68,0,0,0,.12.12,0,0,0,0,0,.06,0A.17.17,0,0,1,65,32a.14.14,0,0,1,.1.16.07.07,0,0,0,0,.05h.17s0,0,0-.05a.18.18,0,0,1,.3-.12,0,0,0,0,0,0,0l.13-.12s0-.05,0-.06a.18.18,0,0,1,.12-.3h0s0,0,0,0A.54.54,0,0,0,66,31.35Z"/></g><g id="Settings-10" data-name="Settings"><path class="cls-3" d="M34.61,14.31a.07.07,0,0,0-.06,0,.2.2,0,0,1-.18-.12.21.21,0,0,1,.05-.22s0,0,0-.06a1.85,1.85,0,0,0-.14-.14s0,0-.07,0a.2.2,0,0,1-.22,0,.18.18,0,0,1-.11-.19s0,0,0-.05h-.19s0,0,0,.05a.18.18,0,0,1-.12.19.19.19,0,0,1-.21,0,.06.06,0,0,0-.07,0l-.14.14a0,0,0,0,0,0,.07.18.18,0,0,1,0,.22.2.2,0,0,1-.19.12s0,0-.05,0v.2a.08.08,0,0,0,.06,0,.18.18,0,0,1,.18.12.19.19,0,0,1,0,.21,0,0,0,0,0,0,.07.86.86,0,0,0,.13.14,0,0,0,0,0,.07,0,.22.22,0,0,1,.22,0,.2.2,0,0,1,.12.19s0,0,0,0h.2a.07.07,0,0,0,0,0A.2.2,0,0,1,34,15a.19.19,0,0,1,.21.05.06.06,0,0,0,.07,0l.14-.14s0-.05,0-.07a.2.2,0,0,1-.05-.22.2.2,0,0,1,.18-.12h0s0,0,0,0A.67.67,0,0,0,34.61,14.31Z"/></g></g></g></g></svg>